<svg width="32" height="25" viewBox="0 0 32 25" fill="none" xmlns="http://www.w3.org/2000/svg">
<path fill-rule="evenodd" clip-rule="evenodd" d="M8.44996 3.87598C8.63358 3.87601 8.81219 3.93355 8.95876 4.03988C9.10534 4.14622 9.21191 4.29556 9.26234 4.46531L10.1784 7.54848C10.3756 8.21247 10.7456 8.81717 11.2535 9.30545C11.7613 9.79374 12.3903 10.1495 13.0809 10.3391L16.2876 11.2199C16.464 11.2685 16.6192 11.371 16.7297 11.5119C16.8402 11.6528 16.8999 11.8245 16.8999 12.001C16.8999 12.1774 16.8402 12.3491 16.7297 12.49C16.6192 12.631 16.464 12.7335 16.2876 12.7821L13.0809 13.6628C12.3903 13.8524 11.7613 14.2082 11.2535 14.6965C10.7456 15.1848 10.3756 15.7895 10.1784 16.4535L9.26234 19.5366C9.2118 19.7063 9.10518 19.8555 8.95861 19.9617C8.81205 20.0679 8.6335 20.1254 8.44996 20.1254C8.26642 20.1254 8.08787 20.0679 7.9413 19.9617C7.79474 19.8555 7.68812 19.7063 7.63758 19.5366L6.72154 16.4535C6.5243 15.7895 6.15428 15.1848 5.64643 14.6965C5.13858 14.2082 4.50965 13.8524 3.81905 13.6628L0.612339 12.7821C0.435896 12.7335 0.280706 12.631 0.170231 12.49C0.0597549 12.3491 0 12.1774 0 12.001C0 11.8245 0.0597549 11.6528 0.170231 11.5119C0.280706 11.371 0.435896 11.2685 0.612339 11.2199L3.81905 10.3391C4.50965 10.1495 5.13858 9.79374 5.64643 9.30545C6.15428 8.81717 6.5243 8.21247 6.72154 7.54848L7.63758 4.46531C7.68801 4.29556 7.79458 4.14622 7.94116 4.03988C8.08773 3.93355 8.26634 3.87601 8.44996 3.87598ZM18.5906 0.625977C18.7792 0.625876 18.9623 0.686388 19.1109 0.797887C19.2596 0.909386 19.3652 1.06547 19.4109 1.24131L19.7016 2.36364C19.9675 3.38198 20.7946 4.17714 21.8537 4.43281L23.021 4.71231C23.2042 4.75595 23.367 4.85732 23.4833 5.00026C23.5997 5.1432 23.6629 5.31947 23.6629 5.50098C23.6629 5.68248 23.5997 5.85875 23.4833 6.00169C23.367 6.14463 23.2042 6.246 23.021 6.28964L21.8537 6.56914C20.7946 6.82481 19.9675 7.61998 19.7016 8.63831L19.4109 9.76064C19.3655 9.93682 19.2601 10.0933 19.1114 10.2052C18.9628 10.317 18.7794 10.3778 18.5906 10.3778C18.4019 10.3778 18.2185 10.317 18.0699 10.2052C17.9212 10.0933 17.8158 9.93682 17.7704 9.76064L17.4797 8.63831C17.3497 8.13828 17.0807 7.68162 16.7017 7.31716C16.3226 6.9527 15.8477 6.69415 15.3276 6.56914L14.1603 6.28964C13.9771 6.246 13.8143 6.14463 13.698 6.00169C13.5816 5.85875 13.5184 5.68248 13.5184 5.50098C13.5184 5.31947 13.5816 5.1432 13.698 5.00026C13.8143 4.85732 13.9771 4.75595 14.1603 4.71231L15.3276 4.43281C15.8477 4.30781 16.3226 4.04925 16.7017 3.6848C17.0807 3.32034 17.3497 2.86368 17.4797 2.36364L17.7704 1.24131C17.8161 1.06547 17.9217 0.909386 18.0703 0.797887C18.219 0.686388 18.4021 0.625876 18.5906 0.625977ZM16.9005 15.251C17.078 15.2509 17.251 15.3045 17.395 15.4043C17.539 15.504 17.6467 15.6448 17.7028 15.8067L18.1467 17.0883C18.3157 17.5726 18.7101 17.9539 19.2149 18.1153L20.5478 18.5432C20.7156 18.5974 20.8615 18.7009 20.9649 18.8391C21.0683 18.9773 21.1239 19.1432 21.1239 19.3135C21.1239 19.4837 21.0683 19.6496 20.9649 19.7878C20.8615 19.926 20.7156 20.0295 20.5478 20.0837L19.2149 20.5116C18.7112 20.6741 18.3146 21.0533 18.1467 21.5386L17.7016 22.8202C17.6453 22.9816 17.5376 23.1219 17.3939 23.2213C17.2502 23.3207 17.0776 23.3741 16.9005 23.3741C16.7235 23.3741 16.5509 23.3207 16.4072 23.2213C16.2634 23.1219 16.1558 22.9816 16.0994 22.8202L15.6544 21.5386C15.5714 21.2995 15.4316 21.0823 15.2463 20.904C15.0609 20.7258 14.8349 20.5914 14.5862 20.5116L13.2533 20.0837C13.0854 20.0295 12.9395 19.926 12.8361 19.7878C12.7328 19.6496 12.6772 19.4837 12.6772 19.3135C12.6772 19.1432 12.7328 18.9773 12.8361 18.8391C12.9395 18.7009 13.0854 18.5974 13.2533 18.5432L14.5862 18.1153C15.0899 17.9528 15.4865 17.5736 15.6544 17.0883L16.0994 15.8067C16.1554 15.645 16.2629 15.5043 16.4067 15.4046C16.5505 15.3048 16.7232 15.2511 16.9005 15.251Z" fill="#5F3196"/>
</svg>
