<svg width="22" height="24" viewBox="0 0 22 24" fill="none" xmlns="http://www.w3.org/2000/svg">
<path fill-rule="evenodd" clip-rule="evenodd" d="M11.0001 0.25C10.1312 0.25 9.30231 0.60522 8.69456 1.23035C8.19823 1.74085 7.88214 2.39713 7.78334 3.09732C6.39118 3.85635 5.20437 4.95943 4.33064 6.30746C3.37677 7.77915 2.83131 9.48823 2.75085 11.2515C2.75033 11.2629 2.75007 11.2743 2.75007 11.2857V15.0972C2.66477 15.768 2.43076 16.4087 2.06719 16.9697C1.69609 17.5422 1.20079 18.0151 0.62259 18.3519C0.329724 18.5225 0.187651 18.8683 0.275995 19.1955C0.364339 19.5227 0.661145 19.75 1.00007 19.75H7.25V20C7.25 20.9946 7.64509 21.9484 8.34835 22.6517C9.05161 23.3549 10.0054 23.75 11 23.75C11.9946 23.75 12.9484 23.3549 13.6517 22.6517C14.3549 21.9484 14.75 20.9946 14.75 20V19.75H21.0001C21.339 19.75 21.6358 19.5227 21.7241 19.1955C21.8125 18.8683 21.6704 18.5225 21.3775 18.3519C20.7993 18.0151 20.304 17.5422 19.9329 16.9697C19.5694 16.4087 19.3354 15.768 19.2501 15.0972V11.2857C19.2501 11.2743 19.2498 11.2629 19.2493 11.2515C19.1688 9.48823 18.6234 7.77915 17.6695 6.30746C16.7958 4.95943 15.609 3.85635 14.2168 3.09732C14.118 2.39713 13.8019 1.74085 13.3056 1.23035C12.6978 0.60522 11.8689 0.25 11.0001 0.25Z" fill="#212529"/>
</svg>
