<svg width="16" height="17" viewBox="0 0 16 17" fill="none" xmlns="http://www.w3.org/2000/svg">
<path fill-rule="evenodd" clip-rule="evenodd" d="M8.3538 11.3529C8.26005 11.4465 8.13297 11.4991 8.00047 11.4991C7.86797 11.4991 7.74088 11.4465 7.64713 11.3529L2.64713 6.35287C2.55881 6.25808 2.51073 6.13272 2.51302 6.00318C2.5153 5.87365 2.56778 5.75006 2.65939 5.65845C2.75099 5.56684 2.87458 5.51437 3.00412 5.51208C3.13365 5.5098 3.25902 5.55788 3.3538 5.6462L8.00047 10.2929L12.6471 5.6462C12.6929 5.59707 12.7481 5.55767 12.8094 5.53035C12.8708 5.50302 12.937 5.48832 13.0041 5.48714C13.0713 5.48595 13.1379 5.4983 13.2002 5.52345C13.2625 5.5486 13.319 5.58603 13.3665 5.63351C13.414 5.68099 13.4514 5.73754 13.4766 5.7998C13.5017 5.86206 13.514 5.92875 13.5129 5.99588C13.5117 6.06302 13.497 6.12923 13.4697 6.19056C13.4423 6.25189 13.4029 6.30709 13.3538 6.35287L8.3538 11.3529Z" fill="currentColor"/>
</svg>
